<svg viewBox="0 0 100 100" fill="currentColor"><path d="M 49.5 10 C 38.18961 10 29 19.18961 29 30.5 L 29 44.185547 C 24.650043 49.050584 22 55.467795 22 62.5 C 22 77.675985 34.324004 90 49.5 90 C 64.675996 90 77 77.675985 77 62.5 C 77 55.467795 74.349957 49.050584 70 44.185547 L 70 30.5 C 70 19.18961 60.81039 10 49.5 10 z M 49.5 12 C 59.72961 12 68 20.27039 68 30.5 L 68 42.162109 C 66.765229 41.038149 65.424122 40.029213 64 39.142578 L 64 30.5 C 64 22.503585 57.496415 16 49.5 16 C 41.503585 16 35 22.503585 35 30.5 L 35 39.142578 C 33.575878 40.029213 32.234771 41.038149 31 42.162109 L 31 30.5 C 31 20.27039 39.27039 12 49.5 12 z M 49.5 18 C 56.415585 18 62 23.584415 62 30.5 L 62 38.011719 C 58.247845 36.090684 54.001022 35 49.5 35 C 44.998978 35 40.752155 36.090684 37 38.011719 L 37 30.5 C 37 23.584415 42.584415 18 49.5 18 z M 49 37.011719 L 49 44.025391 C 47.134121 44.075461 45.337554 44.396934 43.648438 44.960938 L 41.248047 38.369141 C 43.686032 37.536957 46.290926 37.063912 49 37.011719 z M 50 37.011719 C 54.433722 37.097138 58.586884 38.311252 62.1875 40.378906 L 62.490234 40.558594 C 63.545326 41.184464 64.550254 41.886168 65.5 42.652344 L 61.972656 46.857422 A 0.50005 0.50005 0 1 0 62.738281 47.5 L 66.257812 43.306641 C 66.957777 43.918012 67.634301 44.554512 68.263672 45.238281 L 68.587891 45.589844 C 71.541636 48.922239 73.634264 53.033018 74.521484 57.580078 L 67.626953 58.794922 C 66.369866 52.62049 62.028709 47.575074 56.289062 45.304688 L 58.181641 40.111328 A 0.50005 0.50005 0 0 0 57.679688 39.435547 A 0.50005 0.50005 0 0 0 57.240234 39.769531 L 55.351562 44.960938 C 53.662446 44.396934 51.865879 44.075461 50 44.025391 L 50 37.011719 z M 40.308594 38.710938 L 42.710938 45.304688 C 41.003129 45.980232 39.420994 46.89807 38.005859 48.023438 L 33.5 42.652344 C 34.449749 41.886276 35.45458 41.184519 36.509766 40.558594 L 36.8125 40.378906 C 37.927926 39.738373 39.094998 39.179458 40.308594 38.710938 z M 32.742188 43.306641 L 37.244141 48.671875 C 35.885314 49.877276 34.708917 51.275862 33.751953 52.830078 L 27.664062 49.316406 C 28.466452 47.989068 29.38886 46.744267 30.412109 45.589844 L 30.736328 45.238281 C 31.365624 44.554233 32.042241 43.917976 32.742188 43.306641 z M 49.5 45 C 59.170912 45 67 52.829094 67 62.5 C 67 72.170906 59.170912 80 49.5 80 C 39.829088 80 32 72.170906 32 62.5 C 32 52.829094 39.829088 45 49.5 45 z M 70.259766 49.994141 A 0.50005 0.50005 0 0 0 70.037109 50.064453 L 66.558594 52.074219 A 0.50005 0.50005 0 1 0 67.058594 52.939453 L 70.537109 50.931641 A 0.50005 0.50005 0 0 0 70.310547 49.994141 A 0.50005 0.50005 0 0 0 70.259766 49.994141 z M 27.166016 50.183594 L 33.232422 53.685547 C 32.37494 55.263828 31.742125 56.98212 31.373047 58.794922 L 24.478516 57.580078 C 24.992409 54.946345 25.909967 52.45867 27.166016 50.183594 z M 49.5 56 C 47.572833 56 46 57.572833 46 59.5 C 46 60.403333 46.387257 61.194279 46.949219 61.8125 L 46.005859 68.429688 A 0.50005 0.50005 0 0 0 46.5 69 L 52.5 69 A 0.50005 0.50005 0 0 0 52.994141 68.429688 L 52.050781 61.8125 C 52.612743 61.194279 53 60.403333 53 59.5 C 53 57.572833 51.427167 56 49.5 56 z M 49.5 57 C 50.886833 57 52 58.113167 52 59.5 C 52 60.227505 51.687805 60.870319 51.189453 61.330078 A 0.50005 0.50005 0 0 0 51.033203 61.769531 L 51.923828 68 L 47.076172 68 L 47.966797 61.769531 A 0.50005 0.50005 0 0 0 47.810547 61.330078 C 47.312195 60.870319 47 60.227505 47 59.5 C 47 58.113167 48.113167 57 49.5 57 z M 24.302734 58.564453 L 31.222656 59.785156 C 31.091426 60.67365 31 61.57524 31 62.5 C 31 63.42476 31.091426 64.32635 31.222656 65.214844 L 24.302734 66.435547 C 24.104473 65.152934 24 63.838605 24 62.5 C 24 61.161395 24.104473 59.847066 24.302734 58.564453 z M 74.697266 58.564453 C 74.895527 59.847066 75 61.161395 75 62.5 C 75 63.838605 74.895527 65.152934 74.697266 66.435547 L 67.777344 65.214844 C 67.908574 64.32635 68 63.42476 68 62.5 C 68 61.57524 67.908574 60.67365 67.777344 59.785156 L 74.697266 58.564453 z M 31.373047 66.205078 C 32.186987 70.202903 34.303396 73.71942 37.244141 76.328125 L 32.728516 81.708984 C 30.746462 79.977393 29.032906 77.947979 27.664062 75.683594 L 32.427734 72.935547 A 0.50005 0.50005 0 0 0 32.199219 71.998047 A 0.50005 0.50005 0 0 0 31.927734 72.068359 L 27.166016 74.816406 C 25.909967 72.54133 24.992409 70.053655 24.478516 67.419922 L 31.373047 66.205078 z M 67.626953 66.205078 L 74.521484 67.419922 C 73.417284 73.079018 70.445505 78.062414 66.271484 81.708984 L 61.755859 76.328125 C 63.114686 75.122724 64.291083 73.724138 65.248047 72.169922 L 70.037109 74.935547 A 0.5005035 0.5005035 0 1 0 70.537109 74.068359 L 65.767578 71.314453 C 66.62506 69.736172 67.257875 68.01788 67.626953 66.205078 z M 38.005859 76.976562 C 39.420994 78.10193 41.003129 79.019768 42.710938 79.695312 L 40.818359 84.888672 A 0.50076749 0.50076749 0 1 0 41.759766 85.230469 L 43.648438 80.039062 C 45.489372 80.653758 47.453328 81 49.5 81 C 51.546672 81 53.510628 80.653758 55.351562 80.039062 L 57.751953 86.630859 C 55.163667 87.514347 52.389471 88 49.5 88 C 43.433489 88 37.869159 85.884054 33.494141 82.353516 L 38.005859 76.976562 z M 60.994141 76.976562 L 65.505859 82.353516 C 63.469066 83.997161 61.175293 85.330135 58.691406 86.289062 L 56.289062 79.695312 C 57.996871 79.019768 59.579006 78.10193 60.994141 76.976562 z M 49.492188 81.992188 A 0.50005 0.50005 0 0 0 49 82.5 L 49 86.46875 A 0.50005 0.50005 0 1 0 50 86.46875 L 50 82.5 A 0.50005 0.50005 0 0 0 49.492188 81.992188 z" fill="currentColor" class="path"></path></svg>