<svg class="h-screen! w-auto!" viewBox="0 0 671 1080" fill="none" xmlns="http://www.w3.org/2000/svg">
<path d="M293.277 354.868C301.785 354.868 310.258 358.175 318.208 362.617C324.171 365.949 329.871 369.939 335.094 373.687L340.149 377.32L340.183 377.345L554.119 591.281L670.994 475.408L670.993 476.815L554.116 592.692L339.532 378.108C333.006 373.445 325.595 367.89 317.721 363.49C309.832 359.082 301.536 355.868 293.277 355.868H97.6602C56.9563 355.868 23.6328 391.032 23.6328 429.89V1079.36H22.6328V429.89C22.6328 390.496 56.3881 354.868 97.6602 354.868H293.277Z" fill="currentColor"/>
<path d="M552.265 963.992L670.994 878.465L670.993 879.697L552.555 965.017L552.26 965.229L336.643 807.23V1079.36H335.643V805.258L552.265 963.992Z" fill="currentColor"/>
<path d="M386.524 0.384766C404.615 31.1376 414.894 67.1413 414.894 105.715C414.893 219.645 323.375 311.155 209.445 311.155C95.6946 311.155 0.565213 218.069 0.282227 106.215H0.279297V105.715C0.279297 67.1395 10.9842 31.1364 29.6377 0.384766H30.8086C12.1054 31.0123 1.34178 66.9087 1.28027 105.383V105.715C1.28051 217.222 96.0598 310.155 209.445 310.155C322.823 310.155 413.893 219.092 413.894 105.715C413.894 67.1126 403.549 31.0996 385.36 0.384766H386.524Z" fill="currentColor"/>
</svg>
